HIERARCHY
ROOT SpineBase
{
  OFFSET 0.000000 0.000000 0.000000
  CHANNELS 6 Xposition Yposition Zposition Zrotation Xrotation Yrotation
  JOINT SpineMid
  {
    OFFSET 0.000000 29.437127 -0.000000
    CHANNELS 3 Zrotation Xrotation Yrotation
    JOINT SpineShoulder
    {
      OFFSET -0.155092 21.775103 -0.633369
      CHANNELS 3 Zrotation Xrotation Yrotation
      JOINT Neck
      {
        OFFSET -0.149098 7.188587 -0.488387
        CHANNELS 3 Zrotation Xrotation Yrotation
        JOINT Head
        {
          OFFSET -0.693657 10.233318 4.508843
          CHANNELS 3 Zrotation Xrotation Yrotation
          End Site
          {
            OFFSET 0 0 0
          }
        }
      }
      JOINT ShoulderLeft
      {
        OFFSET -4.418590 1.558631 18.024683
        CHANNELS 3 Zrotation Xrotation Yrotation
        JOINT ElbowLeft
        {
          OFFSET 15.344047 -17.363155 2.891548
          CHANNELS 3 Zrotation Xrotation Yrotation
          JOINT WristLeft
          {
            OFFSET 5.009169 -22.775545 3.419657
            CHANNELS 3 Zrotation Xrotation Yrotation
            JOINT HandLeft
            {
              OFFSET 0.093255 -13.201660 0.684016
              CHANNELS 3 Zrotation Xrotation Yrotation
              JOINT HandTipLeft
              {
                OFFSET -0.422177 -6.037669 -0.770944
                CHANNELS 3 Zrotation Xrotation Yrotation
                End Site
                {
                  OFFSET 0 0 0
                }
              }
              JOINT ThumbLeft
              {
                OFFSET 0.019190 -3.068631 -2.285346
                CHANNELS 3 Zrotation Xrotation Yrotation
                End Site
                {
                  OFFSET 0 0 0
                }
              }
            }
          }
        }
      }
      JOINT ShoulderRight
      {
        OFFSET -3.528026 -4.186743 -10.578003
        CHANNELS 3 Zrotation Xrotation Yrotation
        JOINT ElbowRight
        {
          OFFSET -5.228834 -23.487223 -1.619296
          CHANNELS 3 Zrotation Xrotation Yrotation
          JOINT WristRight
          {
            OFFSET -4.886861 -22.925851 3.442012
            CHANNELS 3 Zrotation Xrotation Yrotation
            JOINT HandRight
            {
              OFFSET 0.053363 -6.469587 2.026092
              CHANNELS 3 Zrotation Xrotation Yrotation
              JOINT HandTipRight
              {
                OFFSET -2.219423 -5.633317 1.183850
                CHANNELS 3 Zrotation Xrotation Yrotation
                End Site
                {
                  OFFSET 0 0 0
                }
              }
              JOINT ThumbRight
              {
                OFFSET 3.614076 0.091844 -0.075035
                CHANNELS 3 Zrotation Xrotation Yrotation
                End Site
                {
                  OFFSET 0 0 0
                }
              }
            }
          }
        }
      }
    }
  }
  JOINT HipLeft
  {
    OFFSET -0.953993 -0.478391 -2.124028
    CHANNELS 3 Zrotation Xrotation Yrotation
    JOINT KneeLeft
    {
      OFFSET 18.694313 -29.462392 12.095258
      CHANNELS 3 Zrotation Xrotation Yrotation
      JOINT AnkleLeft
      {
        OFFSET 6.952817 -27.141070 5.924404
        CHANNELS 3 Zrotation Xrotation Yrotation
        JOINT FootLeft
        {
          OFFSET -7.400994 -8.144930 -5.718545
          CHANNELS 3 Zrotation Xrotation Yrotation
          End Site
          {
            OFFSET 0 0 0
          }
        }
      }
    }
  }
  JOINT HipRight
  {
    OFFSET -1.117734 1.784681 -4.232552
    CHANNELS 3 Zrotation Xrotation Yrotation
    JOINT KneeRight
    {
      OFFSET 4.485416 -29.665225 2.106544
      CHANNELS 3 Zrotation Xrotation Yrotation
      JOINT AnkleRight
      {
        OFFSET 8.683288 -31.145308 0.855363
        CHANNELS 3 Zrotation Xrotation Yrotation
        JOINT FootRight
        {
          OFFSET -0.726654 -6.913213 2.982294
          CHANNELS 3 Zrotation Xrotation Yrotation
          End Site
          {
            OFFSET 0 0 0
          }
        }
      }
    }
  }
}
MOTION
Frames: 8
Frame Time: 0.033333
109.420744 69.620950 317.685883 0.265891 0.413676 76.709848 -0.463720 0.163674 -76.710146 -0.000000 0.000000 0.000000 7.476628 -21.518807 -3.639657 0.000000 0.000000 0.000000 7.503348 0.536835 1.599035 -5.700520 -0.056422 -1.309055 -3.345206 1.299031 -0.400867 1.548577 -1.596006 0.090463 0.000000 0.000000 0.000000 0.000000 0.000000 0.000000 -0.000000 0.000000 0.000000 -5.365183 -0.676854 -0.686066 0.112165 0.436507 -0.972404 -1.295789 -2.911501 1.326840 0.000000 0.000000 0.000000 0.000000 0.000000 0.000000 9.995466 12.717370 -73.279598 18.120010 -24.381969 -1.241010 -1.396286 -13.293247 22.630487 0.000000 0.000000 0.000000 -2.392650 0.498423 -77.025825 -0.617796 1.300694 0.175487 -46.791402 36.433104 -9.571977 0.000000 0.000000 0.000000
109.454667 69.377574 317.760258 0.411565 0.203456 70.074434 -0.331537 0.317590 -70.074246 -0.000000 0.000000 0.000000 8.770181 -28.477435 -4.042403 0.000000 0.000000 0.000000 7.987326 0.536726 1.667458 -5.776531 -0.069840 -1.322388 -3.460323 1.238330 -0.445704 1.255309 -1.509383 0.070864 0.000000 0.000000 0.000000 0.000000 0.000000 0.000000 -0.011971 -0.933120 0.208580 -6.525829 0.546104 -1.009361 -1.000432 1.178184 -1.391126 -0.603175 -5.932733 2.192927 0.000000 0.000000 0.000000 0.000000 0.000000 0.000000 9.070207 13.974024 -66.260567 12.058479 -18.983592 -3.407614 7.527951 -19.282237 21.216849 0.000000 0.000000 0.000000 -2.195749 0.977465 -70.373562 -0.166919 1.058028 0.165619 -38.731375 32.786229 -9.676786 0.000000 0.000000 0.000000
109.421318 69.133767 317.853241 0.431469 0.011521 60.578810 -0.221987 0.370163 -60.578137 0.516801 -0.852106 0.021268 7.598638 -34.074531 -4.178198 0.000000 0.000000 0.000000 8.030163 1.386116 1.612231 -6.014352 -0.074256 -1.364755 -3.638222 1.246799 -0.484828 1.114101 -1.502205 0.061675 0.000000 0.000000 0.000000 0.000000 0.000000 0.000000 -0.968061 -1.187645 0.470569 -7.442964 1.779214 -1.336586 -1.091592 2.457611 -1.502835 -0.192407 -8.411279 2.573794 0.000000 0.000000 0.000000 0.000000 0.000000 0.000000 6.665975 17.567420 -56.826497 11.742854 -16.007163 -3.131880 16.011894 -25.408830 22.466161 0.000000 0.000000 0.000000 -1.731334 1.542155 -60.790207 0.348395 0.283306 0.071827 -45.005638 37.870418 -8.896384 0.000000 0.000000 0.000000
109.353701 69.003986 317.995914 0.438182 -0.051007 44.088742 -0.279245 0.341509 -44.087715 0.857392 -0.222460 0.055286 3.930531 -40.442433 -3.924032 0.000000 0.000000 0.000000 8.069674 0.744486 1.709515 -6.201346 -0.068320 -1.382422 -3.765717 1.272099 -0.506491 1.047554 -1.507145 0.057368 0.000000 0.000000 0.000000 0.000000 0.000000 0.000000 -0.961980 -2.431392 0.545036 -8.703681 2.844499 -1.511166 -1.855651 2.823234 -1.736930 -0.478216 -11.688770 3.115562 0.000000 0.000000 0.000000 0.000000 0.000000 0.000000 0.692633 19.171187 -39.790471 8.155907 -9.391830 -3.055245 31.443788 -37.165509 33.977611 0.000000 0.000000 0.000000 -1.631008 2.455512 -44.140883 1.094308 -1.081627 -0.099348 -49.954806 41.093680 -7.949069 0.000000 0.000000 0.000000
109.244263 68.994634 318.223561 0.323442 -0.241566 20.617467 -0.217669 0.339984 -20.616140 0.869264 -0.368417 0.054191 0.996137 -43.596326 -3.977419 0.000000 0.000000 0.000000 9.859447 -2.560815 -0.585173 -6.609786 1.089743 1.096078 -4.124496 1.768275 -0.168654 0.740968 -0.643528 -0.045508 0.000000 0.000000 0.000000 0.000000 0.000000 0.000000 -0.242534 -2.400607 0.537471 -10.309784 3.550968 -1.610344 -1.736032 1.683932 -1.833771 -1.065874 -9.652773 2.606925 0.000000 0.000000 0.000000 0.000000 0.000000 0.000000 -7.602215 17.416346 -15.624008 4.576449 -2.801342 -2.305835 48.771868 -45.140817 48.933874 0.000000 0.000000 0.000000 -2.392136 3.612794 -20.418832 1.988909 -2.808637 -0.285491 -39.386349 36.650690 -8.637597 0.000000 0.000000 0.000000
109.253843 69.076361 318.459467 0.258068 -0.575672 -3.117700 0.243121 -0.332880 3.126829 0.211783 -0.330549 0.014028 -1.267141 -44.306633 -3.989534 0.000000 0.000000 0.000000 9.933234 -0.689462 -0.005104 -6.766411 0.742850 0.343873 -3.856162 1.210712 -0.274626 0.543639 -1.146093 0.016188 0.000000 0.000000 0.000000 0.000000 0.000000 0.000000 1.049793 -1.092968 0.387610 -11.384828 4.037828 -1.606381 -4.206139 0.648469 -2.556597 0.392030 -9.951760 3.221358 0.000000 0.000000 0.000000 0.000000 0.000000 0.000000 -15.023991 13.499078 8.607340 2.938923 0.111469 -1.906091 86.308779 -44.811484 82.973052 0.000000 0.000000 0.000000 -4.656618 4.548716 3.663679 3.105415 -4.844521 -0.471810 -25.977640 35.626070 -7.241279 0.000000 0.000000 0.000000
109.310742 69.257910 318.643137 0.196986 -0.926760 -22.845465 0.390770 -0.594598 22.847148 0.021016 -0.762364 -0.021819 -2.945188 -43.077693 -3.722835 0.000000 0.000000 0.000000 7.964549 4.670256 2.751576 -6.143622 -0.784290 -2.726231 -3.401126 0.371327 -0.670156 1.207199 -1.512501 0.067750 0.000000 0.000000 0.000000 0.000000 0.000000 0.000000 2.550011 0.909065 0.080106 -11.937559 4.136471 -1.550813 -5.899094 -0.401082 -2.992398 2.581356 -7.307708 3.279347 0.000000 0.000000 0.000000 0.000000 0.000000 0.000000 -20.155964 8.098294 27.923028 3.650768 -0.868948 -1.971096 95.011359 -41.707248 92.021222 0.000000 0.000000 0.000000 -7.593278 4.585919 23.779466 4.156078 -7.051852 -0.651211 -24.649309 40.094253 -6.396121 0.000000 0.000000 0.000000
109.483955 69.456093 318.743363 0.285410 -1.208519 -33.755153 0.556481 -0.964262 33.756038 -0.250416 -1.126634 -0.058931 -3.354192 -40.702727 -3.300941 0.000000 0.000000 0.000000 3.438463 12.746201 8.272188 -3.559324 0.930472 -6.847412 -2.145781 -4.145868 -2.452790 0.137873 -3.473307 0.162212 0.000000 0.000000 0.000000 0.000000 0.000000 0.000000 4.233173 3.222817 -0.413639 -12.252382 3.827263 -1.439217 -6.501242 -0.648589 -2.904944 5.396780 -4.930349 3.168381 0.000000 0.000000 0.000000 0.000000 0.000000 0.000000 -21.938807 4.151282 38.026800 4.548496 -2.681556 -2.176592 78.676795 -46.100342 81.259131 0.000000 0.000000 0.000000 -10.103862 3.996310 34.919501 5.157625 -8.736481 -0.740209 -39.862452 53.712611 -2.522880 0.000000 0.000000 0.000000
